<?xml version="1.0" standalone="no"?>
<!DOCTYPE svg PUBLIC "-//W3C//DTD SVG 20010904//EN"
 "http://www.w3.org/TR/2001/REC-SVG-20010904/DTD/svg10.dtd">
<svg version="1.0" xmlns="http://www.w3.org/2000/svg"
 width="198.000000pt" height="198.000000pt" viewBox="0 0 198.000000 198.000000"
 preserveAspectRatio="xMidYMid meet">

<g transform="translate(0.000000,198.000000) scale(0.100000,-0.100000)"
fill="#000000" stroke="none">
<path d="M0 990 l0 -990 985 0 985 0 0 990 0 990 -985 0 -985 0 0 -990z m1357
385 c1 0 -6 -23 -16 -51 -16 -41 -23 -49 -47 -52 -58 -5 -75 -13 -94 -45 -30
-48 -26 -57 25 -57 25 0 45 -1 45 -3 0 -2 -7 -24 -16 -50 l-16 -47 -48 0 -48
0 -67 -195 -68 -195 -68 0 -68 0 65 192 c35 106 64 194 64 195 0 2 -15 3 -34
3 l-34 0 16 50 c15 48 17 50 53 50 34 0 38 3 50 38 39 118 149 190 269 174 19
-3 36 -6 37 -7z m-457 -205 c0 -5 -9 -34 -20 -64 l-21 -55 -127 -42 c-70 -23
-131 -44 -136 -47 -5 -3 24 -18 63 -34 40 -16 88 -35 107 -43 l33 -14 -21 -63
c-11 -35 -22 -64 -23 -66 -3 -3 -324 155 -333 163 -2 2 4 28 14 58 l17 54 216
81 c233 87 231 87 231 72z m603 -71 c89 -45 164 -83 166 -85 2 -2 -5 -27 -16
-56 l-20 -53 -223 -82 c-123 -46 -225 -81 -227 -79 -2 2 7 31 19 66 l23 63
132 42 c73 22 135 44 138 47 3 3 -40 23 -95 44 -56 21 -103 42 -106 46 -8 12
30 128 42 128 2 0 77 -37 167 -81z"/>
</g>
</svg>
