<?xml version="1.0" standalone="no"?>
<!DOCTYPE svg PUBLIC "-//W3C//DTD SVG 20010904//EN"
 "http://www.w3.org/TR/2001/REC-SVG-20010904/DTD/svg10.dtd">
<svg version="1.0" xmlns="http://www.w3.org/2000/svg"
 width="300.000000pt" height="300.000000pt" viewBox="0 0 300.000000 300.000000"
 preserveAspectRatio="xMidYMid meet">
<metadata>
Created by potrace 1.14, written by Peter Selinger 2001-2017
</metadata>
<g transform="translate(0.000000,300.000000) scale(0.100000,-0.100000)"
fill="#000000" stroke="none">
<path d="M0 1500 l0 -1500 1500 0 1500 0 0 1500 0 1500 -1500 0 -1500 0 0
-1500z m1811 673 c5 -5 9 -51 7 -103 l-3 -93 -72 -1 c-111 -2 -153 -42 -153
-148 l0 -58 95 0 95 0 0 -95 0 -95 -95 0 -95 0 0 -390 0 -390 -130 0 -130 0 0
390 0 390 -75 0 -75 0 0 95 0 95 75 0 75 0 0 73 c0 178 85 298 237 337 47 12
230 7 244 -7z m-763 -509 l-3 -126 -235 -84 c-129 -46 -242 -87 -250 -90 -8
-3 98 -45 235 -94 l250 -88 3 -127 c2 -100 0 -126 -10 -122 -7 2 -175 73 -373
157 -198 84 -366 154 -372 157 -9 4 -13 36 -13 113 l0 108 137 58 c76 32 246
104 378 160 132 56 244 103 248 103 4 1 6 -56 5 -125z m1309 -62 l353 -147 0
-102 c0 -71 -4 -104 -12 -110 -7 -4 -182 -78 -388 -165 l-375 -157 -3 121 c-1
67 1 124 5 128 4 4 114 44 243 90 129 45 238 85 242 89 5 4 -103 46 -240 93
l-247 86 -3 126 -3 127 38 -16 c21 -9 197 -82 390 -163z"/>
</g>
</svg>
